<svg width="20" height="20" fill="none" xmlns="http://www.w3.org/2000/svg"><path d="M10 .8C4.927.8.8 4.927.8 10a9.19 9.19 0 001.185 4.516l-1.17 4.176a.4.4 0 00.481.496l4.359-1.08A9.206 9.206 0 0010 19.2c5.073 0 9.2-4.127 9.2-9.2 0-5.073-4.127-9.2-9.2-9.2zm4.628 12.446c-.197.545-1.14 1.042-1.594 1.11-.408.059-.923.084-1.488-.093a13.816 13.816 0 01-1.347-.492c-2.369-1.01-3.916-3.366-4.034-3.521-.118-.156-.965-1.265-.965-2.412 0-1.148.61-1.712.827-1.946a.873.873 0 01.63-.292c.158 0 .315.002.453.008.145.008.34-.054.531.4.197.468.67 1.616.728 1.733.06.117.098.253.02.409-.078.155-.118.252-.236.389-.118.136-.248.304-.354.409-.119.116-.242.242-.104.476.138.233.612.997 1.314 1.615.902.795 1.663 1.041 1.9 1.158.235.117.373.097.51-.059.138-.156.591-.68.748-.914.158-.233.315-.195.532-.117.217.078 1.378.642 1.614.759.236.116.393.175.453.272.059.097.059.564-.138 1.108z" fill="#575757"/></svg>